<svg xmlns="http://www.w3.org/2000/svg" width="32" height="32" viewBox="0 0 32 32">
  <g id="back-slider-icon" transform="translate(-140 -645)">
    <g id="Ellipse_72" data-name="Ellipse 72" transform="translate(140 645)" fill="#fff" stroke="#3167c2" stroke-width="2">
      <circle cx="16" cy="16" r="16" stroke="none"/>
      <circle cx="16" cy="16" r="15" fill="none"/>
    </g>
    <path id="Path_285" data-name="Path 285" d="M-7.9-13.68a.359.359,0,0,1,.266-.1.359.359,0,0,1,.266.1L-.332-6.641a.359.359,0,0,1,.1.266.359.359,0,0,1-.1.266L-7.371.93a.359.359,0,0,1-.266.1A.359.359,0,0,1-7.9.93L-8.168.664A.359.359,0,0,1-8.268.4a.486.486,0,0,1,.1-.3L-1.66-6.375-8.168-12.85a.486.486,0,0,1-.1-.3.359.359,0,0,1,.1-.266Z" transform="translate(149.5 654.25) rotate(180)" fill="#3167c2" stroke="#3167c2" stroke-width="1"/>
  </g>
</svg>
