<svg xmlns="http://www.w3.org/2000/svg" width="97" height="97" viewBox="0 0 97 97">
  <g id="change-password" transform="translate(-1459 -313)">
    <g id="Group_333" data-name="Group 333" transform="translate(1458.836 313)">
      <circle id="Ellipse_31" data-name="Ellipse 31" cx="43.5" cy="43.5" r="43.5" transform="translate(5.164 5)" fill="#8ab1f3" opacity="0.25"/>
      <g id="Ellipse_47" data-name="Ellipse 47" transform="translate(0.164)" fill="none" stroke="#3167c2" stroke-width="1" opacity="0.25">
        <circle cx="48.5" cy="48.5" r="48.5" stroke="none"/>
        <circle cx="48.5" cy="48.5" r="48" fill="none"/>
      </g>
    </g>
    <path id="Path_315" data-name="Path 315" d="M0-2.187a1.5,1.5,0,0,0,1.094-.469A1.5,1.5,0,0,0,1.563-3.75v-5a1.5,1.5,0,0,0-.469-1.094A1.5,1.5,0,0,0,0-10.312a1.5,1.5,0,0,0-1.094.469A1.5,1.5,0,0,0-1.562-8.75v5a1.5,1.5,0,0,0,.469,1.094A1.5,1.5,0,0,0,0-2.187ZM17.5-13.75a3.616,3.616,0,0,0-1.094-2.656A3.616,3.616,0,0,0,13.75-17.5H12.5v-4.922a12.227,12.227,0,0,0-1.68-6.25,12.812,12.812,0,0,0-4.531-4.609A11.882,11.882,0,0,0,.039-35,12.3,12.3,0,0,0-6.25-33.32a12.411,12.411,0,0,0-4.57,4.57A12.227,12.227,0,0,0-12.5-22.5v5h-1.25a3.616,3.616,0,0,0-2.656,1.094A3.616,3.616,0,0,0-17.5-13.75v15a3.616,3.616,0,0,0,1.094,2.656A3.616,3.616,0,0,0-13.75,5h27.5a3.616,3.616,0,0,0,2.656-1.094A3.616,3.616,0,0,0,17.5,1.25ZM-10-17.5v-5a9.916,9.916,0,0,1,1.328-5.039,9.729,9.729,0,0,1,3.633-3.633A9.916,9.916,0,0,1,0-32.5a9.916,9.916,0,0,1,5.039,1.328,9.728,9.728,0,0,1,3.633,3.633A9.916,9.916,0,0,1,10-22.5v5ZM15,1.25A1.2,1.2,0,0,1,13.75,2.5h-27.5a1.217,1.217,0,0,1-.9-.352A1.217,1.217,0,0,1-15,1.25v-15a1.217,1.217,0,0,1,.352-.9,1.217,1.217,0,0,1,.9-.352h27.5a1.217,1.217,0,0,1,.9.352,1.217,1.217,0,0,1,.352.9Z" transform="translate(1507.5 374)" fill="#3167c2"/>
  </g>
</svg>
