<svg xmlns="http://www.w3.org/2000/svg" width="293.333" height="58.398" viewBox="0 0 293.333 58.398">
  <g id="Group_1" data-name="Group 1" transform="translate(-12.094 -141.538)">
    <g id="Group_196" data-name="Group 196" transform="translate(12.094 141.538)">
      <path id="Path_212" data-name="Path 212" d="M58.867,141.538H54.4l-14.255,15.9L29.88,144.757h4.091l6.466,7.58,9.918-10.8H46.027l-5.5,5.993-5.082-5.96H23.2l16.813,20.77,15.805-17.619h4.2l-20.106,23.63-21.75-26.783H14.1l25.757,31.761,27.079-31.794Z" transform="translate(-13.088 -141.538)" fill="#fff"/>
      <path id="Path_213" data-name="Path 213" d="M55.5,242.6l9.274,5.645,1.642-2.73-10.949-6.666-10.085,6.395,1.644,2.731Z" transform="translate(-28.619 -189.852)" fill="#fff"/>
      <path id="Path_214" data-name="Path 214" d="M37.629,197.693V185.87l-21.4-25.876H12.094l22.348,27.024V195.9l-8.574,5.229,1.643,2.73Z" transform="translate(-12.094 -150.7)" fill="#fff"/>
      <path id="Path_215" data-name="Path 215" d="M72.843,195.707V186.82L95.311,159.65l-.063-.053H91.222L69.656,185.673V197.5l10.265,6.26,1.642-2.731Z" transform="translate(-40.672 -150.503)" fill="#fff"/>
    </g>
    <g id="Group_197" data-name="Group 197" transform="translate(74.972 151.655)">
      <path id="Path_216" data-name="Path 216" d="M148.19,184.571a11.224,11.224,0,1,1,9.735-16.712c-1.891.991-2.047,1.085-4.155,2.108a6.446,6.446,0,0,0-5.58-3.193,6.573,6.573,0,0,0,0,13.146,6.461,6.461,0,0,0,5.767-3.442c2.108,1.086,2.171,1.209,4.155,2.108A11.134,11.134,0,0,1,148.19,184.571Z" transform="translate(-136.967 -161.875)" fill="#fff"/>
      <path id="Path_217" data-name="Path 217" d="M201.847,184.543A11.456,11.456,0,1,1,213.319,173.1,11.432,11.432,0,0,1,201.847,184.543ZM195.088,173.1a6.728,6.728,0,1,0,6.758-6.789A6.816,6.816,0,0,0,195.088,173.1Z" transform="translate(-163.498 -161.631)" fill="#fff"/>
      <path id="Path_218" data-name="Path 218" d="M253.45,169.408v15.315H249.2V162.494h5.581l9.891,13.828V162.494H268.8v22.229h-4.121Z" transform="translate(-192.688 -162.059)" fill="#fff"/>
      <path id="Path_219" data-name="Path 219" d="M313.187,184.571a11.224,11.224,0,1,1,9.735-16.712c-1.889.991-2.046,1.085-4.152,2.108a6.453,6.453,0,0,0-5.583-3.193,6.573,6.573,0,0,0,0,13.146,6.46,6.46,0,0,0,5.767-3.442c2.109,1.086,2.17,1.209,4.155,2.108A11.135,11.135,0,0,1,313.187,184.571Z" transform="translate(-218.883 -161.875)" fill="#fff"/>
      <path id="Path_220" data-name="Path 220" d="M366.845,184.543A11.456,11.456,0,1,1,378.317,173.1,11.431,11.431,0,0,1,366.845,184.543ZM360.085,173.1a6.728,6.728,0,1,0,6.759-6.789A6.816,6.816,0,0,0,360.085,173.1Z" transform="translate(-245.414 -161.631)" fill="#fff"/>
      <path id="Path_221" data-name="Path 221" d="M427.682,176.568l6.2,8.216h-5.953l-5.58-7.967h-2.389v7.967h-4.9V162.617h9.983c5.579,0,7.719,3.5,7.719,7.1a6.63,6.63,0,0,1-5.271,6.852ZM419.963,166.4v6.666h3.784c2.325,0,4.247-.527,4.247-3.348,0-2.883-1.923-3.317-4.247-3.317Z" transform="translate(-275.034 -162.121)" fill="#fff"/>
      <path id="Path_222" data-name="Path 222" d="M468.135,162.617h9.549c5.735,0,10.045,3.627,10.045,10.944,0,6.418-3.287,11.193-10.045,11.193h-9.549ZM473,180.661h4.34c2.821,0,5.52-1.737,5.52-6.635,0-4.464-1.582-7.317-6.387-7.317H473Z" transform="translate(-301.381 -162.121)" fill="#fff"/>
      <path id="Path_223" data-name="Path 223" d="M522.377,162.617h4.866v22.136h-4.866Z" transform="translate(-328.31 -162.121)" fill="#fff"/>
      <path id="Path_224" data-name="Path 224" d="M544.967,184.784l10.046-22.106h4.9l9.891,22.106H565.09l-2.171-4.9H551.725l-2.326,4.9Zm12.556-17.951-3.719,8.557h7.347l-3.594-8.557Z" transform="translate(-339.525 -162.151)" fill="#fff"/>
    </g>
    <g id="Group_199" data-name="Group 199" transform="translate(75.606 180.723)">
      <g id="Group_198" data-name="Group 198">
        <path id="Path_225" data-name="Path 225" d="M151.971,219.358l-5.87,10.664h-1.716l-6.159-10.664h2.831l4.32,7.71,4.113-7.71Z" transform="translate(-138.227 -219.358)" fill="#fff"/>
        <path id="Path_226" data-name="Path 226" d="M212.206,230.022H201.19V219.358H212.1v1.819H203.67v2.377h4.919v1.819H203.67v2.646h8.536Z" transform="translate(-169.486 -219.358)" fill="#fff"/>
        <path id="Path_227" data-name="Path 227" d="M274.606,230.022h-1.7l-7.832-6.593a7.453,7.453,0,0,1-.889-.868q.1,1.035.1,1.634v5.827h-2.232V219.358h1.695l7.5,6.283a11.469,11.469,0,0,1,1.219,1.158q-.1-1.489-.1-1.839v-5.6h2.234Z" transform="translate(-199.705 -219.358)" fill="#fff"/>
        <path id="Path_228" data-name="Path 228" d="M335.184,221.259h-4.921v8.763h-2.479v-8.763h-4.9v-1.9h12.3Z" transform="translate(-229.904 -219.358)" fill="#fff"/>
        <path id="Path_229" data-name="Path 229" d="M395.291,227.5a2.692,2.692,0,0,1-.571,2.006,3.141,3.141,0,0,1-2.076.515h-6.738a3.139,3.139,0,0,1-2.075-.515,2.691,2.691,0,0,1-.57-2.006v-8.144h2.479v8.66h7.07v-8.66h2.481Z" transform="translate(-259.878 -219.358)" fill="#fff"/>
        <path id="Path_230" data-name="Path 230" d="M460.558,230.022H457l-4.3-4.029h-2.356v4.029H447.91V219.358h9.136q2.4,0,2.4,2.066v2.5a1.761,1.761,0,0,1-1.239,1.923,12.755,12.755,0,0,1-2.563.145Zm-3.513-6.7v-1.281a.721.721,0,0,0-.312-.7,1.618,1.618,0,0,0-.806-.145h-5.58v2.976h5.58a1.609,1.609,0,0,0,.806-.143A.723.723,0,0,0,457.046,223.326Z" transform="translate(-291.974 -219.358)" fill="#fff"/>
        <path id="Path_231" data-name="Path 231" d="M521.764,230.022H510.748V219.358H521.66v1.819h-8.431v2.377h4.918v1.819h-4.918v2.646h8.535Z" transform="translate(-323.171 -219.358)" fill="#fff"/>
        <path id="Path_232" data-name="Path 232" d="M582.886,227.5a2.662,2.662,0,0,1-.581,2.006,3.181,3.181,0,0,1-2.085.515h-6.592a2.907,2.907,0,0,1-2.151-.578,3.479,3.479,0,0,1-.515-2.232l2.189-.455v1.261h7.544V225.58H574.04a3.14,3.14,0,0,1-2.078-.517,2.7,2.7,0,0,1-.568-2.006v-1.178a2.7,2.7,0,0,1,.568-2,3.144,3.144,0,0,1,2.078-.517H580.1a3.08,3.08,0,0,1,2.085.527,2.8,2.8,0,0,1,.558,2.036l-2.19.516v-1.22h-6.987v2.295h6.656a3.164,3.164,0,0,1,2.085.518,2.652,2.652,0,0,1,.581,2Z" transform="translate(-353.065 -219.358)" fill="#fff"/>
      </g>
    </g>
  </g>
</svg>
