<svg xmlns="http://www.w3.org/2000/svg" width="27.181" height="31.064" viewBox="0 0 27.181 31.064">
  <path id="copy" d="M7.957-14.371a2.808,2.808,0,0,1,.849,2.063V3.952a2.808,2.808,0,0,1-.849,2.063,2.808,2.808,0,0,1-2.063.849H1.04V9.777A2.808,2.808,0,0,1,.191,11.84a2.808,2.808,0,0,1-2.063.849H-15.463a2.808,2.808,0,0,1-2.063-.849,2.808,2.808,0,0,1-.849-2.063V-9.638a2.808,2.808,0,0,1,.849-2.063,2.809,2.809,0,0,1,2.063-.849h4.854v-2.912a2.809,2.809,0,0,1,.849-2.063A2.809,2.809,0,0,1-7.7-18.375H2.739a2.809,2.809,0,0,1,2.063.849ZM2.982-16.433v3.883H6.865a1.619,1.619,0,0,0-.3-.425L3.406-16.13A1.62,1.62,0,0,0,2.982-16.433ZM-.9,9.777V6.865H-7.7A2.808,2.808,0,0,1-9.76,6.015a2.808,2.808,0,0,1-.849-2.063V-10.609h-4.854a.945.945,0,0,0-.7.273.945.945,0,0,0-.273.7V9.777a.945.945,0,0,0,.273.7.945.945,0,0,0,.7.273H-1.872a.945.945,0,0,0,.7-.273A.945.945,0,0,0-.9,9.777ZM6.865,3.952V-10.609H2.5a1.4,1.4,0,0,1-1.031-.425,1.4,1.4,0,0,1-.425-1.031v-4.368H-7.7a.945.945,0,0,0-.7.273.945.945,0,0,0-.273.7V3.952a.945.945,0,0,0,.273.7.945.945,0,0,0,.7.273H5.894a.935.935,0,0,0,.971-.971Z" transform="translate(18.375 18.375)" fill="#aaa"/>
</svg>
