<svg xmlns="http://www.w3.org/2000/svg" width="21.67" height="21.67" viewBox="0 0 21.67 21.67">
  <path id="fingerprint" d="M10.834-7.68a4.154,4.154,0,0,1,2.941,1.248,4.06,4.06,0,0,1,1.248,2.857,36.78,36.78,0,0,1-.508,6.6.758.758,0,0,1-.212.423.574.574,0,0,1-.423.169l-.127-.042a.621.621,0,0,1-.444-.254.685.685,0,0,1-.106-.508,36.575,36.575,0,0,0,.466-6.348A2.687,2.687,0,0,0,12.845-5.5a2.736,2.736,0,0,0-2.01-.825,2.776,2.776,0,0,0-2.053.783A2.567,2.567,0,0,0,8-3.66a28.764,28.764,0,0,1-.592,6.6.747.747,0,0,1-.317.444.641.641,0,0,1-.508.085.657.657,0,0,1-.423-.3.674.674,0,0,1-.106-.487,26.4,26.4,0,0,0,.592-6.306A3.884,3.884,0,0,1,7.808-6.474,4.238,4.238,0,0,1,10.834-7.68Zm0,3.639a.681.681,0,0,1,.466.19.626.626,0,0,1,.212.487,32.652,32.652,0,0,1-1.227,9.48l-.042.169a.759.759,0,0,1-.254.381A.7.7,0,0,1,9.015,6.5a.661.661,0,0,1-.085-.55l.042-.212a30.893,30.893,0,0,0,1.185-9.1.681.681,0,0,1,.19-.466A.626.626,0,0,1,10.834-4.041ZM4.783-8.527a.681.681,0,0,1,.444-.254.567.567,0,0,1,.487.148.767.767,0,0,1,.254.466A.542.542,0,0,1,5.8-7.68a5.7,5.7,0,0,0-1.27,3.766,25.051,25.051,0,0,1-.466,5.248.618.618,0,0,1-.233.4.645.645,0,0,1-.4.148H3.3a.6.6,0,0,1-.444-.275.674.674,0,0,1-.106-.487,24.88,24.88,0,0,0,.423-4.994,6.737,6.737,0,0,1,.381-2.476A7.068,7.068,0,0,1,4.783-8.527ZM21.668-4.168v1.016a.609.609,0,0,1-.19.444.659.659,0,0,1-.487.19h0a.659.659,0,0,1-.487-.19.659.659,0,0,1-.19-.487v-.973A7.65,7.65,0,0,0,20.1-5.945a.583.583,0,0,1,.085-.529.74.74,0,0,1,.444-.3.641.641,0,0,1,.508.085.6.6,0,0,1,.275.444A8.517,8.517,0,0,1,21.668-4.168ZM10.707-14.875a11.015,11.015,0,0,1,5.057,1.312,11.288,11.288,0,0,1,3.957,3.47.6.6,0,0,1,.127.487.655.655,0,0,1-.275.444.663.663,0,0,1-.508.127.636.636,0,0,1-.444-.3,9.853,9.853,0,0,0-3.47-3.026,9.828,9.828,0,0,0-4.486-1.164A9.252,9.252,0,0,0,7-12.864a8.765,8.765,0,0,0-3.047,2.01A9.206,9.206,0,0,0,1.989-7.913a8.38,8.38,0,0,0-.635,3.449v1.016A.581.581,0,0,1,1.143-3a.681.681,0,0,1-.466.19h0a.626.626,0,0,1-.487-.212A.681.681,0,0,1,0-3.491v-.973A9.681,9.681,0,0,1,.741-8.421a10.568,10.568,0,0,1,2.264-3.386,10.171,10.171,0,0,1,3.47-2.306A10.638,10.638,0,0,1,10.707-14.875Zm.042,3.6A7.838,7.838,0,0,1,14.6-10.2a8.03,8.03,0,0,1,2.835,2.751,7.294,7.294,0,0,1,1.1,3.745A39.958,39.958,0,0,1,18.283,1.5a.705.705,0,0,1-.233.423.648.648,0,0,1-.444.169h-.085a.544.544,0,0,1-.466-.233.628.628,0,0,1-.127-.487,37.4,37.4,0,0,0,.254-5.036,6.15,6.15,0,0,0-.91-3.11,6.461,6.461,0,0,0-2.349-2.264,6.712,6.712,0,0,0-3.216-.889,7.592,7.592,0,0,0-1.566.169.6.6,0,0,1-.508-.063.641.641,0,0,1-.317-.423A.7.7,0,0,1,8.4-10.77a.585.585,0,0,1,.444-.3A8.566,8.566,0,0,1,10.75-11.277Z" transform="translate(0.002 14.877)" fill="#3167c2"/>
</svg>
