<svg xmlns="http://www.w3.org/2000/svg" width="21.051" height="21.051" viewBox="0 0 21.051 21.051">
  <path id="key" d="M5.315-13.559a5.715,5.715,0,0,0-2.96.8A6.034,6.034,0,0,0,.2-10.6a5.714,5.714,0,0,0-.8,2.96,6.133,6.133,0,0,0,.411,2.22l-6.99,6.989V4.86h3.947V2.229H-.606V-.4H1.368L3.094-2.129a6.133,6.133,0,0,0,2.22.411,5.715,5.715,0,0,0,2.96-.8,6.034,6.034,0,0,0,2.159-2.159,5.714,5.714,0,0,0,.8-2.96,5.714,5.714,0,0,0-.8-2.96,6.034,6.034,0,0,0-2.159-2.159A5.715,5.715,0,0,0,5.315-13.559Zm0-1.316a7.122,7.122,0,0,1,3.639.966,7.128,7.128,0,0,1,2.631,2.631,7.122,7.122,0,0,1,.966,3.639A7.122,7.122,0,0,1,11.585-4,7.128,7.128,0,0,1,8.953-1.369,7.122,7.122,0,0,1,5.315-.4a7,7,0,0,1-1.85-.247L2.19.625a.952.952,0,0,1-.7.288H.71V2.558a.952.952,0,0,1-.288.7.952.952,0,0,1-.7.288H-1.922V5.189a.952.952,0,0,1-.288.7.952.952,0,0,1-.7.288h-4.6a.952.952,0,0,1-.7-.288.952.952,0,0,1-.288-.7V1.448a.952.952,0,0,1,.288-.7l6.537-6.537a7,7,0,0,1-.247-1.85,7.122,7.122,0,0,1,.966-3.639,7.128,7.128,0,0,1,2.631-2.631A7.122,7.122,0,0,1,5.315-14.875Zm1.974,4.44a.789.789,0,0,0-.576.247.789.789,0,0,0-.247.576.789.789,0,0,0,.247.576.789.789,0,0,0,.576.247.789.789,0,0,0,.576-.247.789.789,0,0,0,.247-.576.789.789,0,0,0-.247-.576A.789.789,0,0,0,7.288-10.435Zm0-1.151a1.9,1.9,0,0,1,1.4.576,1.9,1.9,0,0,1,.576,1.4,1.9,1.9,0,0,1-.576,1.4,1.9,1.9,0,0,1-1.4.576,1.9,1.9,0,0,1-1.4-.576,1.9,1.9,0,0,1-.576-1.4,1.9,1.9,0,0,1,.576-1.4A1.9,1.9,0,0,1,7.288-11.586Z" transform="translate(8.5 14.875)" fill="#3167c2"/>
</svg>
