<svg xmlns="http://www.w3.org/2000/svg" width="32.57" height="26.056" viewBox="0 0 32.57 26.056">
  <path id="kyc" d="M32.468-7.5a.378.378,0,0,1,.1.28.378.378,0,0,1-.1.28L25.7-.422a.484.484,0,0,1-.407.2.484.484,0,0,1-.407-.2L21.272-3.985a.378.378,0,0,1-.1-.28.378.378,0,0,1,.1-.28l.763-.712a.3.3,0,0,1,.254-.153.44.44,0,0,1,.305.153l2.7,2.7,5.852-5.7a.547.547,0,0,1,.305-.1.547.547,0,0,1,.305.1ZM15.98-.219A6.675,6.675,0,0,1,19.389.7a6.763,6.763,0,0,1,2.494,2.494A6.674,6.674,0,0,1,22.8,6.6V8.738a2.433,2.433,0,0,1-2.443,2.443H2.443a2.356,2.356,0,0,1-1.73-.712A2.356,2.356,0,0,1,0,8.738V6.6a6.674,6.674,0,0,1,.916-3.41A6.763,6.763,0,0,1,3.41.7a6.675,6.675,0,0,1,3.41-.916A5.779,5.779,0,0,1,8.55.137q.712.2,1.17.305A8.579,8.579,0,0,0,11.4.6,8.579,8.579,0,0,0,13.079.443q.458-.1,1.17-.305A5.779,5.779,0,0,1,15.98-.219ZM21.17,8.738V6.6a5,5,0,0,0-1.527-3.664A5,5,0,0,0,15.98,1.41a5.1,5.1,0,0,0-1.272.254,10.742,10.742,0,0,1-3.308.56,10.742,10.742,0,0,1-3.308-.56A5.1,5.1,0,0,0,6.819,1.41,5,5,0,0,0,3.155,2.936,5,5,0,0,0,1.628,6.6V8.738a.784.784,0,0,0,.814.814H20.356a.784.784,0,0,0,.814-.814ZM11.4-1.847a6.459,6.459,0,0,1-3.282-.865A6.337,6.337,0,0,1,5.751-5.079a6.459,6.459,0,0,1-.865-3.282,6.459,6.459,0,0,1,.865-3.282A6.337,6.337,0,0,1,8.117-14.01a6.459,6.459,0,0,1,3.282-.865,6.459,6.459,0,0,1,3.282.865,6.337,6.337,0,0,1,2.366,2.366,6.459,6.459,0,0,1,.865,3.282,6.459,6.459,0,0,1-.865,3.282,6.337,6.337,0,0,1-2.366,2.366A6.459,6.459,0,0,1,11.4-1.847Zm0-11.4a4.711,4.711,0,0,0-3.461,1.425A4.711,4.711,0,0,0,6.514-8.361,4.711,4.711,0,0,0,7.939-4.9,4.711,4.711,0,0,0,11.4-3.476,4.711,4.711,0,0,0,14.86-4.9a4.711,4.711,0,0,0,1.425-3.461,4.711,4.711,0,0,0-1.425-3.461A4.711,4.711,0,0,0,11.4-13.247Z" transform="translate(0 14.875)" fill="#aaa"/>
</svg>
