<svg xmlns="http://www.w3.org/2000/svg" width="18.419" height="21.051" viewBox="0 0 18.419 21.051">
  <path id="lock" d="M9.21,2.393a.789.789,0,0,0,.576-.247.789.789,0,0,0,.247-.576V-1.06a.789.789,0,0,0-.247-.576.789.789,0,0,0-.576-.247.789.789,0,0,0-.576.247.789.789,0,0,0-.247.576V1.571a.789.789,0,0,0,.247.576A.789.789,0,0,0,9.21,2.393Zm9.21-6.085a1.9,1.9,0,0,0-.576-1.4,1.9,1.9,0,0,0-1.4-.576h-.658v-2.59a6.435,6.435,0,0,0-.884-3.289,6.743,6.743,0,0,0-2.385-2.426,6.253,6.253,0,0,0-3.289-.9,6.473,6.473,0,0,0-3.31.884,6.532,6.532,0,0,0-2.405,2.405A6.435,6.435,0,0,0,2.631-8.3v2.631H1.974a1.9,1.9,0,0,0-1.4.576A1.9,1.9,0,0,0,0-3.692V4.2A1.9,1.9,0,0,0,.576,5.6a1.9,1.9,0,0,0,1.4.576H16.446A1.965,1.965,0,0,0,18.419,4.2ZM3.947-5.665V-8.3a5.218,5.218,0,0,1,.7-2.652A5.12,5.12,0,0,1,6.558-12.86a5.218,5.218,0,0,1,2.652-.7,5.218,5.218,0,0,1,2.652.7,5.12,5.12,0,0,1,1.912,1.912,5.218,5.218,0,0,1,.7,2.652v2.631ZM17.1,4.2a.633.633,0,0,1-.658.658H1.974A.633.633,0,0,1,1.316,4.2V-3.692A.64.64,0,0,1,1.5-4.165a.64.64,0,0,1,.473-.185H16.446a.64.64,0,0,1,.473.185.64.64,0,0,1,.185.473Z" transform="translate(0 14.875)" fill="#3167c2"/>
</svg>
