<svg xmlns="http://www.w3.org/2000/svg" width="27.26" height="20.445" viewBox="0 0 27.26 20.445">
  <path id="login" d="M9.8-11.738a.741.741,0,0,0-.453-.16.741.741,0,0,0-.453.16l-.373.426a.506.506,0,0,0-.213.426.662.662,0,0,0,.213.479l7.028,6.975H.639a.616.616,0,0,0-.453.186A.616.616,0,0,0,0-2.794v.532a.616.616,0,0,0,.186.453.616.616,0,0,0,.453.186H15.547L8.519,5.352a.662.662,0,0,0-.213.479.506.506,0,0,0,.213.426l.373.426a.741.741,0,0,0,.453.16A.636.636,0,0,0,9.8,6.63l8.785-8.678a.779.779,0,0,0,.16-.479.779.779,0,0,0-.16-.479ZM27.26,5.139A2.545,2.545,0,0,1,24.7,7.695H17.676a.636.636,0,0,1-.639-.639V6.63a.636.636,0,0,1,.639-.639H24.7a.82.82,0,0,0,.852-.852V-10.194a.829.829,0,0,0-.24-.612.829.829,0,0,0-.612-.24H17.676a.616.616,0,0,1-.453-.186.616.616,0,0,1-.186-.453v-.426a.616.616,0,0,1,.186-.453.616.616,0,0,1,.453-.186H24.7a2.465,2.465,0,0,1,1.81.745,2.465,2.465,0,0,1,.745,1.81Z" transform="translate(0 12.75)" fill="#aaa"/>
</svg>
