<svg xmlns="http://www.w3.org/2000/svg" width="28" height="28.006" viewBox="0 0 28 28.006">
  <path id="plane" d="M27.44-14.712a14.271,14.271,0,0,1,.437,2.4,17.088,17.088,0,0,1,.109,2.241q0,4.809-5.246,9.509v6.94a1.776,1.776,0,0,1-.874,1.53l-6.995,4.1a1.677,1.677,0,0,1-1.749,0,1.636,1.636,0,0,1-.874-1.53V5.945q-1.2.546-2.459,1.038a.517.517,0,0,1-.656-.164L5.417,3.1a.517.517,0,0,1-.164-.656Q5.745,1.136,6.292-.012H1.756a1.651,1.651,0,0,1-1.5-.874A1.639,1.639,0,0,1,.226-2.635l4.1-6.995a1.462,1.462,0,0,1,.628-.656,1.886,1.886,0,0,1,.9-.219h6.94q4.7-5.246,9.509-5.246a17.087,17.087,0,0,1,2.241.109,14.272,14.272,0,0,1,2.4.437A.674.674,0,0,1,27.44-14.712ZM1.756-1.76H7.111a40.565,40.565,0,0,1,4.262-6.995H5.855ZM14,10.48l6.995-4.1V.863A40.565,40.565,0,0,1,14,5.125ZM9.844,5.07a44.035,44.035,0,0,0,7.049-3.552,27.613,27.613,0,0,0,6.5-5.191,9.763,9.763,0,0,0,2.842-6.394q0-1.2-.055-1.694a15.022,15.022,0,0,0-.273-1.913,15.283,15.283,0,0,0-1.858-.273Q23.506-14,22.3-14A9.764,9.764,0,0,0,15.91-11.16a27.613,27.613,0,0,0-5.191,6.5A44.034,44.034,0,0,0,7.166,2.393ZM20.118-10.941a2.945,2.945,0,0,1,2.159.9,2.945,2.945,0,0,1,.9,2.159,2.945,2.945,0,0,1-.9,2.159,2.945,2.945,0,0,1-2.159.9,2.945,2.945,0,0,1-2.159-.9,2.945,2.945,0,0,1-.9-2.159,2.945,2.945,0,0,1,.9-2.159A2.945,2.945,0,0,1,20.118-10.941Zm0,4.372a1.265,1.265,0,0,0,.929-.383,1.265,1.265,0,0,0,.383-.929,1.265,1.265,0,0,0-.383-.929,1.265,1.265,0,0,0-.929-.383,1.265,1.265,0,0,0-.929.383,1.265,1.265,0,0,0-.383.929,1.265,1.265,0,0,0,.383.929A1.265,1.265,0,0,0,20.118-6.569Z" transform="translate(0.013 15.75)" fill="#aaa"/>
</svg>
