<svg xmlns="http://www.w3.org/2000/svg" width="27.98" height="24.862" viewBox="0 0 27.98 24.862">
  <path id="refer" d="M27.446-4.479a1.95,1.95,0,0,1,.534,1.36,1.95,1.95,0,0,1-.534,1.36L18.9,7.179a1.891,1.891,0,0,1-1.384.583A1.933,1.933,0,0,1,16.127,7.2a1.84,1.84,0,0,1-.583-1.384V1.544a30.7,30.7,0,0,0-6.023.486A4.08,4.08,0,0,0,6.509,4.167q-.68,1.554.243,4.712a1.442,1.442,0,0,1-.17,1.239,1.584,1.584,0,0,1-1.02.7,1.547,1.547,0,0,1-1.239-.243A10.915,10.915,0,0,1,1.554,7.616,10.205,10.205,0,0,1,0,2.079,8.506,8.506,0,0,1,2.235-4.139,11.394,11.394,0,0,1,7.967-7.005a34.077,34.077,0,0,1,7.578-.777v-4.275a1.84,1.84,0,0,1,.583-1.384A1.933,1.933,0,0,1,17.512-14a1.891,1.891,0,0,1,1.384.583ZM26.328-2.828a.522.522,0,0,0,.1-.291.522.522,0,0,0-.1-.291l-8.549-8.938a.423.423,0,0,0-.437-.049.344.344,0,0,0-.243.34v5.829a48.7,48.7,0,0,0-7.432.437A11.465,11.465,0,0,0,3.886-3.508,6.861,6.861,0,0,0,1.554,2.079,8.414,8.414,0,0,0,2.769,6.548,9.15,9.15,0,0,0,5.246,9.317q-1.166-4.226.1-6.363Q6.509,1.059,9.764.427A43.96,43.96,0,0,1,17.1-.01V5.819a.344.344,0,0,0,.243.34.423.423,0,0,0,.437-.049Z" transform="translate(0 14)" fill="#aaa"/>
</svg>
