<svg xmlns="http://www.w3.org/2000/svg" width="82.6" height="82.6" viewBox="0 0 82.6 82.6">
  <g id="selfie" transform="translate(-1415.068 -537.689)">
    <circle id="Ellipse_75" data-name="Ellipse 75" cx="41.3" cy="41.3" r="41.3" transform="translate(1415.068 537.689)" fill="#f0f6ff"/>
    <g id="Group_320" data-name="Group 320" transform="translate(1433.5 556.494)">
      <g id="Group_191" data-name="Group 191" transform="translate(6.898 2.594)">
        <g id="Group_185" data-name="Group 185" transform="translate(0 0)">
          <path id="Path_225" data-name="Path 225" d="M9040.265,12360.561c0-2.44,1.533-14.91,14.908-14.91s14.909,11.89,14.909,14.91a5.281,5.281,0,0,1,1.134,3.406,3.6,3.6,0,0,1-3.867,3.788c0,.028-2.479,9.959-12.176,9.959s-11.988-9.959-11.988-9.959-4.134-.839-4.134-3.905A4.1,4.1,0,0,1,9040.265,12360.561Z" transform="translate(-9039.025 -12345.65)" fill="none" stroke="#3167c2" stroke-width="2"/>
          <path id="Path_226" data-name="Path 226" d="M9059.276,12389.75a6.415,6.415,0,0,0,5.01,2.367,6.743,6.743,0,0,0,4.915-2.367" transform="translate(-9048.429 -12366.128)" fill="none" stroke="#3167c2" stroke-width="2"/>
          <path id="Path_227" data-name="Path 227" d="M9041.952,12366.848h4.367s.951-7.649,10.106-7.511,10.193,7.511,10.193,7.511h4.416" transform="translate(-9040.385 -12352.007)" fill="none" stroke="#3167c2" stroke-width="2"/>
        </g>
        <path id="Path_228" data-name="Path 228" d="M8869.547,12188.337v-1.517s-.35-3.755,4.687-3.755h19.394s4.594-.233,4.594,3.755c0-.022,0,1.517,0,1.517" transform="translate(-8867.624 -12151.014)" fill="none" stroke="#3167c2" stroke-width="2"/>
      </g>
      <g id="Group_192" data-name="Group 192" transform="translate(0 0)">
        <path id="Path_235" data-name="Path 235" d="M9031.82,12142.378v-6.8h6.944" transform="translate(-9031.82 -12135.504)" fill="none" stroke="#3167c2" stroke-width="2"/>
        <path id="Path_236" data-name="Path 236" d="M0,6.8V0H6.941" transform="translate(46.174 45.057) rotate(180)" fill="none" stroke="#3167c2" stroke-width="2"/>
        <path id="Path_237" data-name="Path 237" d="M0,6.8V0H6.942" transform="translate(46.174) rotate(90)" fill="none" stroke="#3167c2" stroke-width="2"/>
        <path id="Path_238" data-name="Path 238" d="M0,6.8V0H6.942" transform="translate(0 45.127) rotate(-90)" fill="none" stroke="#3167c2" stroke-width="2"/>
      </g>
    </g>
  </g>
</svg>
